<svg xmlns="http://www.w3.org/2000/svg" viewBox="0 0 800 600">
<defs>
<linearGradient id="sky" x1="0" y1="0" x2="0" y2="1"><stop offset="0" stop-color="#030b10"/><stop offset=".7" stop-color="#082a36"/><stop offset="1" stop-color="#0f4a57"/></linearGradient>
<linearGradient id="a1" x1="0" y1="0" x2="0" y2="1"><stop offset="0" stop-color="#6bf0b0" stop-opacity="0"/><stop offset=".55" stop-color="#6bf0b0" stop-opacity=".75"/><stop offset="1" stop-color="#b6ffd8" stop-opacity=".05"/></linearGradient>
<linearGradient id="a2" x1="0" y1="0" x2="0" y2="1"><stop offset="0" stop-color="#b58cff" stop-opacity="0"/><stop offset=".5" stop-color="#8f7dff" stop-opacity=".45"/><stop offset="1" stop-color="#6bf0b0" stop-opacity="0"/></linearGradient>
<filter id="blur"><feGaussianBlur stdDeviation="10"/></filter>
<linearGradient id="water" x1="0" y1="0" x2="0" y2="1"><stop offset="0" stop-color="#0d3f4b"/><stop offset="1" stop-color="#041419"/></linearGradient>
</defs>
<rect width="800" height="600" fill="url(#sky)"/>
<g fill="#fff"><circle cx="60" cy="50" r="1.5"/><circle cx="150" cy="120" r="1"/><circle cx="260" cy="40" r="1.3"/><circle cx="380" cy="90" r="1"/><circle cx="470" cy="30" r="1.6"/><circle cx="600" cy="70" r="1.1"/><circle cx="720" cy="40" r="1.4"/><circle cx="760" cy="150" r="1"/><circle cx="330" cy="160" r="1"/><circle cx="90" cy="200" r="1.2"/><circle cx="690" cy="210" r="1"/></g>
<g filter="url(#blur)">
<path d="M-20 260 C120 120 260 250 400 150 S650 60 820 170 L820 300 C650 190 520 300 400 260 S150 230 -20 380Z" fill="url(#a1)"/>
<path d="M-20 200 C160 90 300 180 420 100 S660 40 820 110 L820 180 C660 120 540 200 420 170 S160 160 -20 270Z" fill="url(#a2)"/>
</g>
<g stroke="#9cffd0" stroke-opacity=".35" stroke-width="2">
<path d="M120 190 v90 M160 175 v100 M200 180 v95 M420 120 v110 M460 110 v120 M500 105 v110 M620 110 v100 M660 120 v95"/>
</g>
<path d="M0 420 L140 400 L230 330 Q300 250 360 240 Q400 236 430 300 L500 380 L620 390 L800 410 V440 H0Z" fill="#061a20"/>
<path d="M330 256 Q360 238 392 252 L376 262 L358 256 L344 266Z" fill="#dfe9ec" opacity=".8"/>
<rect y="440" width="800" height="160" fill="url(#water)"/>
<g opacity=".35" transform="translate(0 880) scale(1 -1)"><path d="M0 420 L140 400 L230 330 Q300 250 360 240 Q400 236 430 300 L500 380 L620 390 L800 410 V440 H0Z" fill="#6bf0b0" filter="url(#blur)"/></g>
<g stroke="#6bf0b0" stroke-opacity=".35" stroke-width="3" stroke-linecap="round"><path d="M180 480 h120 M420 500 h160 M260 530 h90 M520 550 h120"/></g>
</svg>
